<svg version="1.0" xmlns="http://www.w3.org/2000/svg" width="800.000000" height="800.000000" viewBox="0 0 800.000000 800.000000" preserveAspectRatio="xMidYMid meet">
  <metadata>
    <rdf:RDF xmlns:rdf="http://www.w3.org/1999/02/22-rdf-syntax-ns#" xmlns:rdfs="http://www.w3.org/2000/01/rdf-schema#" xmlns:dc="http://purl.org/dc/elements/1.1/">
      <rdf:Description dc:format="image/svg+xml" dc:Label="1" dc:ContentProducer="001191330110MACRLGPT8B00000" dc:ProduceID="419168578" dc:ReservedCode1="YJTA9YS9eSMckG2mHyfXZHjL/qI6IvM/52V0ZNFTM3Y=" dc:ContentPropagator="001191330110MACRLGPT8B00000" dc:PropagateID="419168578" dc:ReservedCode2="YJTA9YS9eSMckG2mHyfXZHjL/qI6IvM/52V0ZNFTM3Y="/>
    </rdf:RDF>
  </metadata>
  <g transform="translate(-2.253068,827.104716) scale(0.103395,-0.103395)" fill="#7c8ef0" stroke="none">
    <path d="M2893 6126 c-28 -24 -28 -26 -32 -155 l-3 -131 -247 0 c-277 0 -346 -10 -451 -62 -95 -47 -197 -152 -242 -248 -20 -41 -41 -96 -47 -121 -7 -33 -11 -455 -11 -1436 l-1 -1389 22 -69 c31 -102 61 -155 126 -226 65 -70 130 -115 218 -150 l60 -24 1573 -3 c1745 -3 1638 -7 1773 64 131 69 239 209 274 355 22 94 22 2778 0 2882 -20 98 -68 181 -150 263 -129 129 -244 167 -490 162 l-150 -3 0 -85 0 -85 180 -5 c210 -6 239 -15 330 -101 62 -58 98 -126 114 -213 15 -79 15 -2670 1 -2746 -24 -129 -100 -228 -218 -283 l-67 -32 -1555 2 c-855 2 -1568 6 -1585 9 -84 18 -179 91 -229 176 -59 101 -57 38 -54 1534 l3 1369 33 67 c41 83 131 169 209 198 49 18 78 20 318 20 l264 0 3 -185 c3 -182 3 -185 28 -209 38 -38 84 -38 124 -1 l26 24 0 186 0 185 764 0 c687 0 764 2 770 16 8 20 8 112 0 142 l-6 22 -764 0 -764 0 0 130 c0 126 -1 132 -25 155 -32 33 -84 33 -122 1z"/>
    <path d="M4768 6133 c-37 -42 -38 -57 -38 -438 0 -298 3 -382 14 -409 24 -58 107 -69 146 -18 19 24 20 41 20 429 l0 404 -25 24 c-30 31 -94 34 -117 8z"/>
    <path d="M2768 4323 c-15 -2 -37 -16 -48 -30 -29 -37 -26 -79 9 -114 l29 -29 1077 0 c925 0 1080 2 1104 15 32 16 41 33 41 79 0 45 -19 67 -66 75 -40 7 -2097 11 -2146 4z"/>
    <path d="M2744 3528 c-47 -22 -57 -95 -19 -133 l24 -25 723 -2 c398 -2 744 -3 770 -2 36 0 53 6 73 24 34 32 35 91 0 125 l-24 25 -763 -1 c-504 0 -770 -4 -784 -11z"/>
  </g>
</svg>