<svg version="1.0" xmlns="http://www.w3.org/2000/svg" width="800.000000" height="800.000000" viewBox="0 0 800.000000 800.000000" preserveAspectRatio="xMidYMid meet">
  <metadata>
    <rdf:RDF xmlns:rdf="http://www.w3.org/1999/02/22-rdf-syntax-ns#" xmlns:rdfs="http://www.w3.org/2000/01/rdf-schema#" xmlns:dc="http://purl.org/dc/elements/1.1/">
      <rdf:Description dc:format="image/svg+xml" dc:Label="1" dc:ContentProducer="001191330110MACRLGPT8B00000" dc:ProduceID="419168577" dc:ReservedCode1="dvwwcb/1N5FHXecLBL69OI8bIbnvHcxG/FWmwXh0CnY=" dc:ContentPropagator="001191330110MACRLGPT8B00000" dc:PropagateID="419168577" dc:ReservedCode2="dvwwcb/1N5FHXecLBL69OI8bIbnvHcxG/FWmwXh0CnY="/>
    </rdf:RDF>
  </metadata>
  <g transform="translate(187.321694,609.139351) scale(0.054813,-0.054813)" fill="#7c8ef0" stroke="none">
    <path d="M1923 6626 c-28 -7 -91 -32 -140 -55 -73 -35 -102 -57 -173 -129 -102 -104 -123 -142 -243 -457 -145 -378 -383 -989 -486 -1250 l-99 -250 -304 -5 c-328 -5 -323 -5 -379 -62 -45 -48 -52 -81 -50 -273 1 -159 4 -185 22 -222 24 -50 77 -99 133 -124 37 -16 242 -75 383 -110 l53 -13 2 -1220 3 -1221 33 -66 c36 -74 83 -121 151 -153 42 -18 69 -21 295 -24 278 -5 340 4 415 59 45 32 93 98 109 149 6 19 13 123 16 230 3 107 6 196 6 198 0 1 994 2 2209 2 l2210 0 3 -202 c3 -188 5 -207 27 -256 31 -69 113 -144 178 -163 36 -10 114 -14 308 -14 250 0 262 1 317 24 66 27 129 89 161 159 l22 47 5 1225 5 1225 105 27 c386 103 432 127 474 251 24 73 23 356 -3 412 -19 43 -68 91 -108 106 -12 4 -146 9 -297 9 -150 1 -283 4 -294 7 -22 5 -79 141 -325 778 -431 1111 -409 1061 -503 1165 -79 87 -230 175 -342 199 -81 17 -3828 14 -3899 -3z m3890 -176 c78 -24 172 -85 226 -146 55 -63 96 -150 207 -439 53 -137 148 -383 211 -545 64 -162 142 -362 173 -445 100 -260 189 -485 204 -514 26 -49 43 -51 376 -51 296 0 310 -1 320 -19 14 -27 12 -238 -3 -280 -15 -44 -59 -62 -316 -130 -101 -27 -196 -58 -210 -68 -14 -11 -34 -35 -43 -54 -17 -32 -18 -112 -18 -1257 0 -1193 0 -1224 -20 -1261 -33 -66 -54 -71 -329 -71 l-240 0 -35 31 c-20 17 -40 47 -46 67 -5 20 -10 129 -10 242 0 219 -3 235 -56 275 -16 12 -325 14 -2325 15 l-2306 0 -27 -21 c-48 -38 -51 -50 -56 -301 l-5 -238 -33 -32 -32 -33 -253 -3 c-236 -2 -254 -1 -284 17 -18 11 -40 35 -50 53 -17 31 -18 103 -23 1268 -5 1187 -6 1236 -24 1266 -27 45 -55 58 -211 97 -221 56 -307 85 -332 113 -22 24 -23 34 -23 164 0 127 2 140 19 150 12 6 130 10 315 10 164 0 306 4 320 10 14 5 34 27 45 48 22 44 162 396 354 892 402 1038 366 953 434 1037 42 53 151 125 228 152 60 20 68 20 1936 21 1852 0 1878 0 1942 -20z"/>
    <path d="M1576 4189 c-36 -28 -37 -89 -1 -124 l24 -25 2270 0 2269 0 31 26 c40 33 43 83 6 119 l-24 25 -2274 0 -2274 0 -27 -21z"/>
    <path d="M1270 3318 c-69 -47 -70 -52 -70 -439 0 -207 4 -369 11 -404 20 -110 88 -213 180 -274 107 -72 88 -70 774 -72 l615 -1 54 26 c86 42 141 139 134 236 -10 143 -185 398 -377 550 -311 247 -679 373 -1152 396 -130 6 -135 5 -169 -18z m245 -158 c351 -32 626 -121 867 -282 158 -106 329 -296 387 -430 33 -76 34 -83 5 -117 l-26 -31 -586 0 c-546 0 -590 2 -627 19 -60 27 -101 66 -129 123 l-26 52 0 338 c0 264 3 338 13 338 6 0 62 -5 122 -10z"/>
    <path d="M6180 3329 c-212 -19 -510 -98 -695 -184 -171 -80 -363 -219 -471 -342 -128 -147 -222 -307 -231 -397 -11 -105 47 -208 141 -252 l51 -24 607 0 c562 0 611 1 666 18 157 50 267 178 293 345 6 36 9 214 7 408 -3 310 -5 347 -21 377 -34 62 -106 72 -347 51z m190 -497 l0 -338 -26 -52 c-14 -29 -42 -65 -62 -82 -73 -60 -70 -60 -701 -60 l-575 0 -23 22 c-36 34 -30 80 21 170 166 292 471 504 871 608 107 27 287 57 390 63 28 2 62 4 78 5 l27 2 0 -338z"/>
  </g>
</svg>