<svg version="1.0" xmlns="http://www.w3.org/2000/svg" width="800.000000" height="800.000000" viewBox="0 0 800.000000 800.000000" preserveAspectRatio="xMidYMid meet">
  <metadata>
    <rdf:RDF xmlns:rdf="http://www.w3.org/1999/02/22-rdf-syntax-ns#" xmlns:rdfs="http://www.w3.org/2000/01/rdf-schema#" xmlns:dc="http://purl.org/dc/elements/1.1/">
      <rdf:Description dc:format="image/svg+xml" dc:Label="1" dc:ContentProducer="001191330110MACRLGPT8B00000" dc:ProduceID="419172786" dc:ReservedCode1="VuIqO+oNx1Kh9ncVjdCAfIfScWNjfAMnr1bg+WL2oN4=" dc:ContentPropagator="001191330110MACRLGPT8B00000" dc:PropagateID="419172786" dc:ReservedCode2="VuIqO+oNx1Kh9ncVjdCAfIfScWNjfAMnr1bg+WL2oN4="/>
    </rdf:RDF>
  </metadata>
  <g transform="translate(0.000000,800.000000) scale(0.100000,-0.100000)" fill="#5a6bea" stroke="none">
    <path d="M2948 6005 c-15 -8 -30 -25 -34 -37 -8 -26 -7 -894 2 -921 8 -26 60 -49 95 -42 54 12 59 32 59 222 l0 173 254 0 255 0 3 -176 3 -176 28 -24 c31 -26 54 -30 90 -13 41 18 47 49 47 224 l0 165 250 0 250 0 0 -162 c0 -175 6 -202 51 -227 31 -17 71 -9 99 21 19 21 20 34 20 469 0 312 -3 456 -11 473 -26 55 -107 57 -140 2 -17 -28 -19 -52 -19 -218 l0 -188 -250 0 -250 0 0 198 c0 185 -1 200 -20 220 -28 30 -68 38 -99 21 -46 -26 -51 -50 -51 -251 l0 -188 -255 0 -255 0 0 198 c0 171 -3 200 -18 219 -22 29 -69 37 -104 18z"/>
    <path d="M4984 6010 c-12 -5 -26 -15 -30 -22 -5 -7 -11 -103 -14 -213 l-5 -200 -162 -3 -163 -2 0 -85 0 -85 163 -2 162 -3 3 -177 2 -177 27 -20 c39 -31 88 -23 120 18 18 23 18 919 0 942 -26 34 -64 45 -103 29z"/>
    <path d="M2379 5556 c-154 -43 -266 -164 -309 -332 -19 -77 -20 -112 -20 -1441 0 -1481 -1 -1442 55 -1559 52 -106 157 -197 266 -228 49 -15 217 -16 1654 -14 l1600 3 66 31 c78 37 167 122 203 192 59 116 56 43 56 1581 0 824 -4 1418 -9 1429 -5 9 -14 35 -20 58 -17 63 -84 158 -144 203 -92 70 -148 85 -317 86 l-145 0 0 -80 0 -80 140 -5 c161 -6 197 -19 259 -92 62 -72 66 -100 66 -475 l0 -333 -1610 0 -1611 0 3 -82 3 -83 1608 -3 1607 -2 0 -973 c0 -1114 5 -1043 -84 -1133 -92 -91 51 -84 -1695 -84 -1752 0 -1592 -9 -1691 90 -39 38 -60 69 -69 100 -19 63 -18 2829 0 2891 17 55 83 127 144 155 43 21 65 24 168 24 l117 0 0 85 0 85 -122 -1 c-68 0 -144 -7 -169 -13z"/>
    <path d="M2850 3615 l0 -165 160 0 160 0 0 165 0 165 -160 0 -160 0 0 -165z"/>
    <path d="M3510 3615 l0 -165 163 2 162 3 0 160 0 160 -162 3 -163 2 0 -165z"/>
    <path d="M4174 3767 c-2 -7 -3 -80 -2 -162 l3 -150 163 -3 162 -2 0 165 0 165 -160 0 c-122 0 -162 -3 -166 -13z"/>
    <path d="M4840 3615 l0 -165 160 0 160 0 0 165 0 165 -160 0 -160 0 0 -165z"/>
    <path d="M2850 2925 l0 -165 160 0 160 0 0 165 0 165 -160 0 -160 0 0 -165z"/>
    <path d="M3510 2925 l0 -165 163 2 162 3 0 160 0 160 -162 3 -163 2 0 -165z"/>
    <path d="M4174 3077 c-2 -7 -3 -80 -2 -162 l3 -150 163 -3 162 -2 0 165 0 165 -160 0 c-122 0 -162 -3 -166 -13z"/>
    <path d="M4840 2925 l0 -165 160 0 160 0 0 165 0 165 -160 0 -160 0 0 -165z"/>
  </g>
</svg>