<svg version="1.0" xmlns="http://www.w3.org/2000/svg" width="800.000000" height="800.000000" viewBox="0 0 800.000000 800.000000" preserveAspectRatio="xMidYMid meet">
  <metadata>
    <rdf:RDF xmlns:rdf="http://www.w3.org/1999/02/22-rdf-syntax-ns#" xmlns:rdfs="http://www.w3.org/2000/01/rdf-schema#" xmlns:dc="http://purl.org/dc/elements/1.1/">
      <rdf:Description dc:format="image/svg+xml" dc:Label="1" dc:ContentProducer="001191330110MACRLGPT8B00000" dc:ProduceID="419169486" dc:ReservedCode1="nsAjIVZ0Vf8bYyMgVA10Gi50hKlhC8N2xrbwXgeHfbw=" dc:ContentPropagator="001191330110MACRLGPT8B00000" dc:PropagateID="419169486" dc:ReservedCode2="nsAjIVZ0Vf8bYyMgVA10Gi50hKlhC8N2xrbwXgeHfbw="/>
    </rdf:RDF>
  </metadata>
  <g transform="translate(0.000000,800.000000) scale(0.100000,-0.100000)" fill="#5a6bea" stroke="none">
    <path d="M1882 5693 c-7 -3 -19 -18 -28 -35 -22 -42 -10 -85 29 -109 31 -18 59 -19 737 -19 l706 0 54 72 c30 40 59 78 63 85 6 11 -139 13 -770 12 -428 0 -784 -3 -791 -6z"/>
    <path d="M4463 5586 c-103 -20 -165 -42 -273 -97 -118 -61 -222 -146 -304 -250 -290 -367 -263 -888 64 -1219 36 -37 83 -80 105 -97 l39 -31 -53 -28 c-247 -133 -459 -345 -576 -574 -35 -68 -81 -205 -101 -300 -22 -106 -26 -375 -6 -432 26 -73 -76 -68 1277 -68 815 0 1223 3 1236 10 45 24 53 64 54 245 0 179 -7 232 -52 370 -102 318 -311 564 -627 740 l-68 38 33 26 c72 55 150 136 199 207 201 290 229 631 80 939 -96 197 -233 336 -424 431 -61 30 -147 64 -191 75 -103 27 -309 34 -412 15z m340 -172 c40 -9 113 -35 162 -58 284 -135 446 -385 448 -691 1 -210 -67 -380 -213 -531 -120 -125 -264 -200 -435 -230 -366 -63 -731 147 -862 497 -66 175 -67 362 -2 529 98 256 330 446 599 493 64 11 236 6 303 -9z m-413 -1658 c149 -43 339 -41 513 6 93 24 108 22 246 -48 116 -58 227 -141 321 -240 88 -93 136 -162 190 -276 65 -137 91 -242 97 -400 l6 -138 -1128 0 -1128 0 6 133 c8 200 62 371 169 537 105 164 303 327 503 415 87 39 107 40 205 11z"/>
    <path d="M1869 4971 c-17 -18 -29 -40 -29 -56 0 -16 12 -38 29 -56 l29 -29 594 0 593 0 16 85 15 85 -609 0 -609 0 -29 -29z"/>
    <path d="M1890 4287 c-52 -26 -62 -98 -19 -135 18 -16 73 -17 650 -22 l629 -5 -6 30 c-4 17 -14 55 -23 85 l-17 55 -594 2 c-465 2 -600 0 -620 -10z"/>
    <path d="M1869 3561 c-44 -45 -36 -97 21 -126 25 -13 107 -15 570 -15 l542 0 29 29 c16 16 29 39 29 51 0 29 -26 76 -45 84 -9 3 -264 6 -567 6 l-550 0 -29 -29z"/>
  </g>
</svg>