<?xml version="1.0" standalone="no"?><!DOCTYPE svg PUBLIC "-//W3C//DTD SVG 1.1//EN" "http://www.w3.org/Graphics/SVG/1.1/DTD/svg11.dtd"><svg class="icon" width="200px" height="200.00px" viewBox="0 0 1024 1024" version="1.1" xmlns="http://www.w3.org/2000/svg"><path fill="#5a6bea" d="M938.666667 576V896a42.666667 42.666667 0 0 1-42.666667 42.666667h-42.666667a42.666667 42.666667 0 0 1-42.666666-42.666667v-42.666667H213.333333v42.666667a42.666667 42.666667 0 0 1-42.666666 42.666667H128a42.666667 42.666667 0 0 1-42.666667-42.666667v-320l-53.034666-13.226667A42.666667 42.666667 0 0 1 0 521.386667v-30.72a21.333333 21.333333 0 0 1 21.333333-21.333334h80l91.221334-243.285333A85.333333 85.333333 0 0 1 272.469333 170.666667h479.061334a85.333333 85.333333 0 0 1 79.914666 55.381333L922.666667 469.333333H1002.666667a21.333333 21.333333 0 0 1 21.333333 21.333334v30.72a42.666667 42.666667 0 0 1-32.341333 41.386666L938.666667 576zM170.666667 640v85.333333a42.666667 42.666667 0 0 0 42.666666 42.666667h138.453334a21.333333 21.333333 0 0 0 18.773333-31.402667C336.213333 672.170667 269.568 640 170.666667 640z m682.666666 0c-98.858667 0-165.504 32.213333-199.936 96.597333a21.333333 21.333333 0 0 0 18.816 31.402667H810.666667a42.666667 42.666667 0 0 0 42.666666-42.666667v-85.333333zM256 256l-66.602667 199.850667A42.666667 42.666667 0 0 0 229.845333 512h564.309334a42.666667 42.666667 0 0 0 40.448-56.149333L768 256H256z"  /></svg>